HIERARCHY
ROOT hip
{
	OFFSET 0.000000 103.560692 0.219151
	CHANNELS 6 Xposition Yposition Zposition Zrotation Xrotation Yrotation
	JOINT pelvis
	{
		OFFSET 0.000000 1.955040 1.591925
		CHANNELS 3 Zrotation Xrotation Yrotation
		JOINT lThigh
		{
			OFFSET 8.341582 -7.629402 -0.646910
			CHANNELS 3 Zrotation Xrotation Yrotation
			JOINT lShin
			{
				OFFSET 2.185763 -45.093132 -0.705710
				CHANNELS 3 Zrotation Xrotation Yrotation
				JOINT lFoot
				{
					OFFSET 0.730976 -46.379768 -2.264282
					CHANNELS 3 Zrotation Xrotation Yrotation
					JOINT lToe
					{
						OFFSET 2.797621 -4.200020 10.742415
						CHANNELS 3 Zrotation Xrotation Yrotation
						JOINT lBigToe
						{
							OFFSET -2.433708 -0.269072 1.841711
							CHANNELS 3 Zrotation Xrotation Yrotation
							End Site
							{
								OFFSET -10.527346 -33.657166 -1.340707
							}
						}
					}
				}
			}
		}
		JOINT rThigh
		{
			OFFSET -8.341582 -7.629402 -0.646910
			CHANNELS 3 Zrotation Xrotation Yrotation
			JOINT rShin
			{
				OFFSET -2.185763 -45.093132 -0.705710
				CHANNELS 3 Zrotation Xrotation Yrotation
				JOINT rFoot
				{
					OFFSET -0.730976 -46.379768 -2.264282
					CHANNELS 3 Zrotation Xrotation Yrotation
					JOINT rToe
					{
						OFFSET -2.797621 -4.200019 10.742415
						CHANNELS 3 Zrotation Xrotation Yrotation
						JOINT rBigToe
						{
							OFFSET 2.433708 -0.269072 1.841711
							CHANNELS 3 Zrotation Xrotation Yrotation
							End Site
							{
								OFFSET 0.000000 24.298409 -0.425647
							}
						}
					}
				}
			}
		}
	}
	JOINT abdomen
	{
		OFFSET 0.000000 1.841293 -3.551421
		CHANNELS 3 Zrotation Xrotation Yrotation
		JOINT abdomen2
		{
			OFFSET 0.000000 5.439911 3.419600
			CHANNELS 3 Zrotation Xrotation Yrotation
			JOINT chest
			{
				OFFSET 0.000000 14.715073 -2.918270
				CHANNELS 3 Zrotation Xrotation Yrotation
				JOINT neck
				{
					OFFSET 0.000000 26.294655 -1.248052
					CHANNELS 3 Zrotation Xrotation Yrotation
					JOINT head
					{
						OFFSET 0.000000 8.807068 1.063695
						CHANNELS 3 Zrotation Xrotation Yrotation
						JOINT rEye
						{
							OFFSET -3.030866 6.632080 7.702687
							CHANNELS 3 Zrotation Xrotation Yrotation
							End Site
							{
								OFFSET 2.969555 -11.022598 8.626689
							}
						}
						JOINT lEye
						{
							OFFSET 3.030866 6.632080 7.702687
							CHANNELS 3 Zrotation Xrotation Yrotation
							End Site
							{
								OFFSET 0.000000 -15.881760 10.104412
							}
						}
						JOINT upperJaw
						{
							OFFSET 0.000000 1.922699 2.891887
							CHANNELS 3 Zrotation Xrotation Yrotation
							End Site
							{
								OFFSET 0.000000 -19.386169 10.230839
							}
						}
						JOINT lowerJaw
						{
							OFFSET 0.000000 1.857620 2.686640
							CHANNELS 3 Zrotation Xrotation Yrotation
							JOINT tongueBase
							{
								OFFSET 0.000000 -3.019135 2.746916
								CHANNELS 3 Zrotation Xrotation Yrotation
								JOINT tongue01
								{
									OFFSET 0.000000 0.664124 0.223355
									CHANNELS 3 Zrotation Xrotation Yrotation
									JOINT tongue02
									{
										OFFSET 0.000000 0.339737 0.715627
										CHANNELS 3 Zrotation Xrotation Yrotation
										JOINT tongue03
										{
											OFFSET 0.000000 0.123444 0.730634
											CHANNELS 3 Zrotation Xrotation Yrotation
											JOINT tongue04
											{
												OFFSET 0.000000 0.017212 0.737415
												CHANNELS 3 Zrotation Xrotation Yrotation
												JOINT tongue05
												{
													OFFSET 0.000000 -0.021011 0.632440
													CHANNELS 3 Zrotation Xrotation Yrotation
													JOINT tongueTip
													{
														OFFSET 0.000000 -0.014404 0.601796
														CHANNELS 3 Zrotation Xrotation Yrotation
														End Site
														{
															OFFSET -14.139406 -2.625778 0.472826
														}
													}
												}
											}
										}
									}
								}
							}
						}
					}
				}
				JOINT rCollar
				{
					OFFSET -2.109295 21.452370 3.768136
					CHANNELS 3 Zrotation Xrotation Yrotation
					JOINT rShldr
					{
						OFFSET -11.491621 -2.568573 -4.940255
						CHANNELS 3 Zrotation Xrotation Yrotation
						JOINT rForeArm
						{
							OFFSET -28.789030 -0.213806 2.098380
							CHANNELS 3 Zrotation Xrotation Yrotation
							JOINT rHand
							{
								OFFSET -22.260895 -0.869583 10.391586
								CHANNELS 3 Zrotation Xrotation Yrotation
								JOINT rThumb1
								{
									OFFSET -0.628075 0.137405 2.362409
									CHANNELS 3 Zrotation Xrotation Yrotation
									JOINT rThumb2
									{
										OFFSET 0.085205 -0.600235 3.826079
										CHANNELS 3 Zrotation Xrotation Yrotation
										JOINT rThumb3
										{
											OFFSET -1.255478 -0.879211 2.439162
											CHANNELS 3 Zrotation Xrotation Yrotation
											End Site
											{
												OFFSET -2.963715 0.538574 4.059553
											}
										}
									}
								}
								JOINT rCarpal1
								{
									OFFSET -0.855530 1.026047 1.621985
									CHANNELS 3 Zrotation Xrotation Yrotation
									JOINT rIndex1
									{
										OFFSET -3.951324 0.390884 3.873290
										CHANNELS 3 Zrotation Xrotation Yrotation
										JOINT rIndex2
										{
											OFFSET -3.071884 -1.259598 2.506104
											CHANNELS 3 Zrotation Xrotation Yrotation
											JOINT rIndex3
											{
												OFFSET -1.394112 -1.446640 1.203302
												CHANNELS 3 Zrotation Xrotation Yrotation
												End Site
												{
													OFFSET -3.392448 -1.258026 0.533405
												}
											}
										}
									}
									JOINT rMid1
									{
										OFFSET -5.422974 0.107910 2.002650
										CHANNELS 3 Zrotation Xrotation Yrotation
										JOINT rMid2
										{
											OFFSET -3.599533 -1.323776 2.090647
											CHANNELS 3 Zrotation Xrotation Yrotation
											JOINT rMid3
											{
												OFFSET -1.360191 -1.598495 1.068055
												CHANNELS 3 Zrotation Xrotation Yrotation
												End Site
												{
													OFFSET -4.087769 -0.460876 0.069540
												}
											}
										}
									}
								}
								JOINT rCarpal2
								{
									OFFSET -1.942749 0.556229 -0.337217
									CHANNELS 3 Zrotation Xrotation Yrotation
									JOINT rRing1
									{
										OFFSET -4.762787 -0.121170 2.349089
										CHANNELS 3 Zrotation Xrotation Yrotation
										JOINT rRing2
										{
											OFFSET -3.380348 -1.337097 1.356700
											CHANNELS 3 Zrotation Xrotation Yrotation
											JOINT rRing3
											{
												OFFSET -1.430290 -1.499649 0.914224
												CHANNELS 3 Zrotation Xrotation Yrotation
												End Site
												{
													OFFSET -1.783272 -2.215851 -0.391895
												}
											}
										}
									}
									JOINT rPinky1
									{
										OFFSET -5.232559 -1.313721 0.336493
										CHANNELS 3 Zrotation Xrotation Yrotation
										JOINT rPinky2
										{
											OFFSET -2.217606 -1.389603 0.800693
											CHANNELS 3 Zrotation Xrotation Yrotation
											JOINT rPinky3
											{
												OFFSET -0.886887 -1.462280 0.774199
												CHANNELS 3 Zrotation Xrotation Yrotation
												End Site
												{
													OFFSET 14.139406 -2.625778 0.472826
												}
											}
										}
									}
								}
							}
						}
					}
				}
				JOINT lCollar
				{
					OFFSET 2.109295 21.452370 3.768136
					CHANNELS 3 Zrotation Xrotation Yrotation
					JOINT lShldr
					{
						OFFSET 11.491621 -2.568573 -4.940255
						CHANNELS 3 Zrotation Xrotation Yrotation
						JOINT lForeArm
						{
							OFFSET 28.789030 -0.213806 2.098380
							CHANNELS 3 Zrotation Xrotation Yrotation
							JOINT lHand
							{
								OFFSET 22.260895 -0.869583 10.391586
								CHANNELS 3 Zrotation Xrotation Yrotation
								JOINT lThumb1
								{
									OFFSET 0.628075 0.137405 2.362409
									CHANNELS 3 Zrotation Xrotation Yrotation
									JOINT lThumb2
									{
										OFFSET -0.085205 -0.600235 3.826079
										CHANNELS 3 Zrotation Xrotation Yrotation
										JOINT lThumb3
										{
											OFFSET 1.255478 -0.879211 2.439162
											CHANNELS 3 Zrotation Xrotation Yrotation
											End Site
											{
												OFFSET 2.963715 0.538574 4.059553
											}
										}
									}
								}
								JOINT lCarpal1
								{
									OFFSET 0.855530 1.026047 1.621985
									CHANNELS 3 Zrotation Xrotation Yrotation
									JOINT lIndex1
									{
										OFFSET 3.951324 0.390884 3.873290
										CHANNELS 3 Zrotation Xrotation Yrotation
										JOINT lIndex2
										{
											OFFSET 3.071884 -1.259598 2.506104
											CHANNELS 3 Zrotation Xrotation Yrotation
											JOINT lIndex3
											{
												OFFSET 1.394112 -1.446640 1.203302
												CHANNELS 3 Zrotation Xrotation Yrotation
												End Site
												{
													OFFSET 3.392448 -1.258026 0.533405
												}
											}
										}
									}
									JOINT lMid1
									{
										OFFSET 5.422974 0.107910 2.002650
										CHANNELS 3 Zrotation Xrotation Yrotation
										JOINT lMid2
										{
											OFFSET 3.599533 -1.323776 2.090647
											CHANNELS 3 Zrotation Xrotation Yrotation
											JOINT lMid3
											{
												OFFSET 1.360191 -1.598495 1.068055
												CHANNELS 3 Zrotation Xrotation Yrotation
												End Site
												{
													OFFSET 4.087769 -0.460876 0.069540
												}
											}
										}
									}
								}
								JOINT lCarpal2
								{
									OFFSET 1.942749 0.556229 -0.337217
									CHANNELS 3 Zrotation Xrotation Yrotation
									JOINT lRing1
									{
										OFFSET 4.762787 -0.121170 2.349089
										CHANNELS 3 Zrotation Xrotation Yrotation
										JOINT lRing2
										{
											OFFSET 3.380348 -1.337097 1.356700
											CHANNELS 3 Zrotation Xrotation Yrotation
											JOINT lRing3
											{
												OFFSET 1.430290 -1.499649 0.914224
												CHANNELS 3 Zrotation Xrotation Yrotation
												End Site
												{
													OFFSET 1.783272 -2.215851 -0.391895
												}
											}
										}
									}
									JOINT lPinky1
									{
										OFFSET 5.232559 -1.313721 0.336493
										CHANNELS 3 Zrotation Xrotation Yrotation
										JOINT lPinky2
										{
											OFFSET 2.217606 -1.389603 0.800693
											CHANNELS 3 Zrotation Xrotation Yrotation
											JOINT lPinky3
											{
												OFFSET 0.886887 -1.462280 0.774199
												CHANNELS 3 Zrotation Xrotation Yrotation
												End Site
												{
													OFFSET -10.295957 -17.050110 17.461308
												}
											}
										}
									}
								}
							}
						}
					}
				}
				JOINT rPectoral
				{
					OFFSET -6.358840 6.360771 6.369920
					CHANNELS 3 Zrotation Xrotation Yrotation
					End Site
					{
						OFFSET 10.295957 -17.050110 17.461308
					}
				}
				JOINT lPectoral
				{
					OFFSET 6.358840 6.360771 6.369920
					CHANNELS 3 Zrotation Xrotation Yrotation
					End Site
					{
						OFFSET 10.295957 -17.050110 17.461308
					}
				}
			}
		}
	}
}
MOTION
Frames:	4
Frame Time:	0.0333333
0.000000 0.988563 0.000000 0.813813 3.432194 0.717174 0.000000 0.000000 0.000000 2.963369 -4.752166 -0.378481 -1.304065 2.275238 -7.198817 2.570049 -16.530369 -8.553647 4.394555 -8.289803 1.796343 0.000000 0.000000 0.000000 -2.343465 -7.545961 4.637968 2.626099 7.682510 11.455010 -6.190187 -19.691641 -8.712098 -4.722867 -7.726259 -1.703113 0.000000 0.000000 0.000000 -1.739818 -2.254973 -3.448787 0.000000 0.000000 0.000000 1.286296 6.260974 -2.639704 4.538545 -17.368904 1.669275 -3.770800 12.035876 4.176224 0.000000 0.000000 0.000000 0.000000 0.000000 0.000000 0.000000 0.000000 0.000000 0.000000 0.000000 0.000000 0.000000 0.000000 0.000000 0.000000 0.000000 0.000000 0.000000 0.000000 0.000000 0.000000 0.000000 0.000000 0.000000 0.000000 0.000000 0.000000 0.000000 0.000000 0.000000 0.000000 0.000000 17.969503 -0.082396 -3.837565 57.723297 24.763693 2.182965 0.451563 -12.991405 -8.537599 2.243217 1.780507 2.891243 -20.264042 16.013258 -11.237515 -5.406475 -14.233100 9.902917 -16.498158 20.810770 16.029741 0.000000 0.000000 0.000000 -10.482511 -8.511502 -17.446432 -2.316486 0.146064 -1.334255 -6.204258 -3.793461 -1.179560 -8.647417 -3.307343 -7.176109 -0.594737 3.049747 -3.815813 0.477367 4.595480 -2.175193 0.000000 0.000000 0.000000 -7.611748 -8.343170 -0.037786 3.860767 4.744883 -6.979596 1.274629 8.359100 -3.952725 -21.910795 -24.665661 -14.976031 1.013203 5.939926 -6.999176 24.181765 21.167713 -1.929171 -12.967263 0.065659 3.174918 -65.704636 20.729015 -2.953140 3.113644 -18.721338 19.256958 -10.737016 6.544425 -4.461303 15.319375 21.766415 8.847219 9.911510 -11.644153 7.274738 18.123583 23.750795 -10.967499 0.000000 0.000000 0.000000 12.087916 -8.719340 19.628771 2.223932 -1.158973 -0.291106 7.677248 -5.971616 1.309509 9.740169 -3.721250 7.587963 1.783134 2.627414 3.967587 -3.453461 6.215672 1.440461 0.000000 0.000000 0.000000 14.823339 -9.916796 2.952401 -14.904284 10.482020 6.850453 -11.617700 10.916432 0.445627 21.915442 -24.314636 15.509168 -1.840489 7.770340 6.102779 -27.438419 15.370988 -3.025694 0.150756 -0.007537 -0.442678 -0.115598 -0.005675 0.339429 
-0.085396 0.994534 0.001433 0.745553 3.546966 0.761383 0.000000 0.000000 0.000000 3.047452 -4.795420 -0.497701 -1.254015 2.111746 -7.138555 2.530284 -16.491253 -8.549656 4.394555 -8.289803 1.796343 0.000000 0.000000 0.000000 -2.187449 -7.533938 4.707572 2.624309 7.401395 12.156131 -6.604687 -19.309021 -9.543144 -4.548841 -8.091051 -1.718145 0.000000 0.000000 0.000000 -1.563163 -2.609601 -3.384072 0.000000 0.000000 0.000000 0.914671 6.637672 -2.503374 4.780308 -17.506899 1.616452 -3.735561 12.020053 4.156885 0.000000 0.000000 0.000000 0.000000 0.000000 0.000000 0.000000 0.000000 0.000000 0.000000 0.000000 0.000000 0.000000 0.000000 0.000000 0.000000 0.000000 0.000000 0.000000 0.000000 0.000000 0.000000 0.000000 0.000000 0.000000 0.000000 0.000000 0.000000 0.000000 0.000000 0.000000 0.000000 0.000000 18.078356 -0.054488 -3.732651 57.508472 24.752634 2.447153 0.439868 -12.672850 -8.601500 2.427458 1.883202 3.112392 -20.264042 16.013258 -11.237515 -5.406475 -14.233100 9.902917 -16.498158 20.810770 16.029741 0.000000 0.000000 0.000000 -10.482511 -8.511502 -17.446432 -2.462627 0.012452 -1.341983 -6.204258 -3.793461 -1.179560 -8.647417 -3.307343 -7.176109 -0.594737 3.049747 -3.815813 0.477367 4.595480 -2.175193 0.000000 0.000000 0.000000 -7.507317 -8.302395 -0.019024 4.216634 4.885375 -6.974387 1.274629 8.359100 -3.952725 -21.824009 -24.661030 -14.934678 2.317829 6.427177 -6.907187 24.466105 21.328026 -1.911342 -12.833003 0.081890 3.077685 -65.131287 20.311306 -3.767306 2.963349 -18.096233 19.531565 -10.998971 6.448333 -4.024065 14.593932 21.975145 9.232624 9.703200 -11.798696 6.426372 18.123583 23.750795 -10.967499 0.000000 0.000000 0.000000 12.145862 -8.581276 19.713045 2.223932 -1.158973 -0.291106 7.476200 -5.789444 1.283242 9.740169 -3.721250 7.587963 1.783134 2.627414 3.967587 -3.453461 6.215672 1.440461 0.000000 0.000000 0.000000 14.745427 -9.968313 2.886388 -14.444762 10.288237 6.830190 -11.516804 10.865675 0.443068 22.115061 -24.505461 15.353707 -1.725513 7.702002 6.135406 -27.238413 15.252742 -3.005206 0.147676 -0.007371 -0.433633 -0.112144 -0.005495 0.329284 
-0.210679 0.998960 -0.015753 0.693780 3.558313 0.830052 0.000000 0.000000 0.000000 3.212708 -4.796908 -0.534768 -1.323476 2.022934 -7.163844 2.468663 -16.433393 -8.542044 4.394555 -8.289803 1.796343 0.000000 0.000000 0.000000 -2.038488 -7.472185 4.995672 2.702261 7.160812 12.031075 -6.762001 -19.137413 -9.856777 -4.564749 -8.005549 -1.721960 0.000000 0.000000 0.000000 -1.580196 -2.574879 -3.286458 0.000000 0.000000 0.000000 0.904559 6.575118 -2.425936 4.740180 -17.509247 1.533612 -3.667418 12.001808 4.034876 0.000000 0.000000 0.000000 0.000000 0.000000 0.000000 0.000000 0.000000 0.000000 0.000000 0.000000 0.000000 0.000000 0.000000 0.000000 0.000000 0.000000 0.000000 0.000000 0.000000 0.000000 0.000000 0.000000 0.000000 0.000000 0.000000 0.000000 0.000000 0.000000 0.000000 0.000000 0.000000 0.000000 18.123663 -0.052590 -3.726441 57.386623 24.511740 2.575092 0.282747 -11.907115 -8.588377 2.717205 2.043695 3.197704 -20.264042 16.013258 -11.237515 -5.406475 -14.233100 9.902917 -16.498158 20.810770 16.029741 0.000000 0.000000 0.000000 -10.482511 -8.511502 -17.446432 -2.616937 -0.128649 -1.350543 -6.204258 -3.793461 -1.179560 -8.647417 -3.307343 -7.176109 -0.594737 3.049747 -3.815813 0.477367 4.595480 -2.175193 0.000000 0.000000 0.000000 -7.393169 -8.257970 0.001461 4.590241 5.032861 -6.969788 1.274629 8.359100 -3.952725 -21.734934 -24.656116 -14.892157 3.690454 6.939894 -6.823490 24.768671 21.498190 -1.894203 -12.938614 0.092975 3.002635 -64.424667 20.697929 -4.523632 3.119434 -17.876637 19.959547 -11.173243 6.385379 -3.847429 13.774691 22.301378 9.721427 9.482103 -11.957927 5.534735 18.123583 23.750795 -10.967499 0.000000 0.000000 0.000000 12.206302 -8.435802 19.801094 2.223932 -1.158973 -0.291106 7.265500 -5.597995 1.256593 9.740169 -3.721250 7.587963 1.783134 2.627414 3.967587 -3.453461 6.215672 1.440461 0.000000 0.000000 0.000000 14.663462 -10.021966 2.817375 -13.963213 10.084802 6.810886 -11.410927 10.812396 0.440464 22.322975 -24.705954 15.190025 -1.604762 7.630305 6.169706 -27.028255 15.129011 -2.983877 0.147618 -0.007368 -0.433461 -0.109949 -0.005382 0.322839 
-0.343770 1.003310 -0.054942 0.586395 3.568956 0.961676 0.000000 0.000000 0.000000 3.346838 -4.764964 -0.590780 -1.266475 1.885132 -7.243762 2.336435 -16.400692 -8.514787 4.394555 -8.289803 1.796343 0.000000 0.000000 0.000000 -1.832970 -7.412762 5.191511 2.683628 6.997692 11.526475 -6.675790 -18.942425 -9.784624 -4.423180 -8.231359 -1.748401 0.000000 0.000000 0.000000 -1.333174 -2.584718 -3.323954 0.000000 0.000000 0.000000 0.632002 6.577013 -2.385298 4.883519 -17.551044 1.524521 -3.854105 11.999372 4.125134 0.000000 0.000000 0.000000 0.000000 0.000000 0.000000 0.000000 0.000000 0.000000 0.000000 0.000000 0.000000 0.000000 0.000000 0.000000 0.000000 0.000000 0.000000 0.000000 0.000000 0.000000 0.000000 0.000000 0.000000 0.000000 0.000000 0.000000 0.000000 0.000000 0.000000 0.000000 0.000000 0.000000 18.217733 -0.034986 -3.659917 56.836048 25.540354 2.817362 0.425225 -12.463618 -8.599601 2.955106 2.182727 3.278474 -20.264042 16.013258 -11.237515 -5.406475 -14.233100 9.902917 -16.498158 20.810770 16.029741 0.000000 0.000000 0.000000 -10.482511 -8.511502 -17.446432 -2.778615 -0.276410 -1.359913 -6.414559 -4.000005 -1.210144 -8.647417 -3.307343 -7.176109 -0.594737 3.049747 -3.815813 0.477367 4.595480 -2.175193 0.000000 0.000000 0.000000 -7.269814 -8.210044 0.023568 4.980096 5.186799 -6.966087 1.274629 8.359100 -3.952725 -21.643072 -24.651190 -14.847933 5.125466 7.475749 -6.749904 25.087782 21.676893 -1.877728 -12.919680 0.101554 2.943622 -63.706097 21.124739 -5.218109 2.862454 -18.403635 20.248377 -11.546205 6.245631 -3.053631 12.874783 22.719374 10.301087 9.248821 -12.120076 4.603833 18.123583 23.750795 -10.967499 0.000000 0.000000 0.000000 12.268652 -8.283956 19.892933 2.236892 -1.178327 -0.285972 7.045986 -5.398214 1.229422 9.781001 -3.744209 7.592960 1.783134 2.627414 3.967587 -3.416875 6.187034 1.442956 0.000000 0.000000 0.000000 14.577683 -10.078148 2.745214 -13.461035 9.872297 6.792405 -11.300276 10.756860 0.438075 22.539400 -24.913929 15.019272 -1.478865 7.555512 6.205686 -26.809515 14.999680 -2.960781 0.145747 -0.007268 -0.427969 -0.107995 -0.005281 0.317101 
